# xmcd CD database file
#
# Track frame offsets:
#	150
#	17753
#	33050
#	52739
#	71972
#	94378
#	110093
#	128636
#
# Disc length: 1893 seconds
#
# Revision: 0
# Processed by: cddbd v1.5.2PL0 Copyright (c) Steve Scherf et al.
# Submitted via: CDex 1.70beta2
#
DISCID=66076308
DTITLE=Spinks, Johnny - Cdn. - OVM - ON - Rust On the Rail
DYEAR=1900
DGENRE=Country
TTITLE0=Nova Scotia
TTITLE1=Hold On
TTITLE2=When We Were Young
TTITLE3=Rust On the Rail
TTITLE4=Her Mommas Smile
TTITLE5=Valley Song
TTITLE6=The Leaves Are Falling
TTITLE7=I'm Otta Here
EXTD=
EXTT0=
EXTT1=
EXTT2=
EXTT3=
EXTT4=
EXTT5=
EXTT6=
EXTT7=
PLAYORDER=
